<svg data-v-fde0c5aa="" xmlns="http://www.w3.org/2000/svg" viewBox="0 0 300 300" class="iconLeftSlogan"><!----><defs data-v-fde0c5aa=""><!----></defs><rect data-v-fde0c5aa="" fill="#FFFFFF" x="5" y="0" width="500px" height="500px" class="logo-background-square"></rect><defs data-v-fde0c5aa=""><!----></defs><g data-v-fde0c5aa="" id="0e5e37c4-1941-4a1f-8ea9-c718d8ec1dbd" fill="#1F1E1A" transform="matrix(1.5311967030626998,0,0,1.5311967030626998,92.36457980857,126.04264445237413)"><path d="M0.39 14L1.97 14C2.38 14 2.59 13.97 2.59 13.76C2.59 13.29 2.17 13.62 2.38 12.81L2.51 12.32C2.58 12.17 2.74 12.12 2.88 12.12L6.27 12.12C6.45 12.12 6.57 12.15 6.64 12.35L6.89 13.05C7.06 13.52 6.57 13.36 6.57 13.76C6.57 13.97 6.71 14 7.03 14L8.71 14C9.10 14 9.24 13.97 9.24 13.73C9.24 13.41 8.83 13.51 8.62 12.96L5.63 5.22C5.43 4.73 5.89 4.77 5.89 4.47C5.89 4.27 5.77 4.20 5.54 4.20L3.49 4.20C3.28 4.20 3.15 4.27 3.15 4.47C3.15 4.73 3.51 4.72 3.35 5.22L0.69 12.89C0.48 13.51 0 13.38 0 13.73C0 13.96 0.20 14 0.39 14ZM3.22 10.74C3.05 10.74 2.97 10.65 3.02 10.49L4.38 6.55C4.42 6.43 4.55 6.41 4.61 6.57L5.99 10.43C6.05 10.58 6.02 10.74 5.85 10.74ZM10.46 14L12.10 14C12.46 14 12.61 14.03 12.61 13.80C12.61 13.41 12.03 13.68 12.03 12.80L12.03 8.40C12.03 8.08 12.19 8.01 12.45 8.22L17.35 12.38C17.53 12.56 17.64 12.77 17.64 12.92L17.64 13.66C17.64 13.85 17.71 14 17.91 14L19.22 14C19.40 14 19.66 14 19.66 13.76C19.66 13.40 19.21 13.48 19.21 12.94L19.21 5.54C19.21 4.56 19.71 4.82 19.71 4.47C19.71 4.23 19.43 4.20 18.91 4.20L17.96 4.20C17.36 4.20 17.14 4.20 17.14 4.44C17.14 4.80 17.64 4.52 17.64 5.63L17.64 10.15C17.64 10.47 17.47 10.51 17.29 10.35L12.29 6.05C12.11 5.87 12.01 5.80 12.01 5.54L12.01 4.56C12.01 4.31 11.87 4.20 11.61 4.20L10.61 4.20C10.16 4.20 9.98 4.21 9.98 4.41C9.98 4.72 10.46 4.55 10.47 5.40L10.47 12.77C10.50 13.62 9.94 13.43 9.94 13.80C9.94 14 10.18 14 10.46 14ZM20.69 9.16C20.69 12.52 23.14 14.20 25.62 14.24C28.17 14.28 30.74 12.59 30.74 9.16C30.74 5.71 28.28 4.02 25.79 3.99C23.25 3.98 20.69 5.71 20.69 9.16ZM22.37 9.16C22.37 6.69 24.08 5.47 25.77 5.49C27.44 5.50 29.11 6.72 29.11 9.16C29.11 11.58 27.38 12.78 25.68 12.75C24.01 12.73 22.37 11.52 22.37 9.16ZM31.58 9.16C31.58 12.52 34.03 14.20 36.51 14.24C39.06 14.28 41.64 12.59 41.64 9.16C41.64 5.71 39.17 4.02 36.68 3.99C34.15 3.98 31.58 5.71 31.58 9.16ZM33.26 9.16C33.26 6.69 34.97 5.47 36.67 5.49C38.33 5.50 40.00 6.72 40.00 9.16C40.00 11.58 38.28 12.78 36.57 12.75C34.90 12.73 33.26 11.52 33.26 9.16ZM42.84 14L44.60 14C44.95 14 45.08 13.93 45.08 13.78C45.08 13.44 44.58 13.54 44.58 12.92L44.58 10.78C44.58 10.25 44.81 10.28 44.94 10.28L47.56 10.28C47.94 10.28 48.03 10.32 48.13 10.56L49.14 12.92C49.39 13.52 48.85 13.40 48.85 13.79C48.85 13.96 48.97 14 49.53 14L50.89 14C51.13 14 51.35 14 51.35 13.78C51.35 13.40 50.90 13.47 50.74 13.06L49.56 10.25C49.49 10.08 49.50 9.97 49.70 9.84C50.23 9.49 51.00 8.51 51.00 7.39C51.00 5.19 49.32 4.20 47.50 4.20L43.26 4.20C42.67 4.20 42.48 4.26 42.48 4.42C42.48 4.77 43.01 4.56 43.01 5.49L43.01 12.89C43.01 13.47 42.49 13.48 42.49 13.79C42.49 14 42.73 14 42.84 14ZM45.07 8.88C44.80 8.88 44.59 8.79 44.59 8.54L44.58 6.10C44.58 5.77 44.74 5.68 45.01 5.68L47.50 5.68C48.85 5.68 49.36 6.38 49.36 7.39C49.36 8.27 48.62 8.88 47.70 8.88ZM56.36 14L57.95 14C58.35 14 58.56 13.97 58.56 13.76C58.56 13.29 58.14 13.62 58.35 12.81L58.48 12.32C58.55 12.17 58.72 12.12 58.86 12.12L62.24 12.12C62.43 12.12 62.54 12.15 62.61 12.35L62.86 13.05C63.03 13.52 62.54 13.36 62.54 13.76C62.54 13.97 62.68 14 63 14L64.68 14C65.07 14 65.21 13.97 65.21 13.73C65.21 13.41 64.81 13.51 64.60 12.96L61.60 5.22C61.40 4.73 61.87 4.77 61.87 4.47C61.87 4.27 61.74 4.20 61.52 4.20L59.46 4.20C59.25 4.20 59.12 4.27 59.12 4.47C59.12 4.73 59.49 4.72 59.32 5.22L56.66 12.89C56.45 13.51 55.97 13.38 55.97 13.73C55.97 13.96 56.17 14 56.36 14ZM59.19 10.74C59.02 10.74 58.94 10.65 59.00 10.49L60.35 6.55C60.40 6.43 60.52 6.41 60.58 6.57L61.96 10.43C62.02 10.58 61.99 10.74 61.82 10.74ZM66.40 14L67.96 14C68.40 14 68.63 14 68.63 13.82C68.63 13.44 68.10 13.58 68.10 12.78L68.12 8.55C68.12 8.43 68.19 8.30 68.35 8.47L71.20 11.63C71.33 11.80 71.47 11.83 71.64 11.62L74.28 8.47C74.40 8.34 74.55 8.30 74.55 8.47L74.56 12.70C74.56 13.58 74.05 13.38 74.05 13.76C74.05 13.94 74.17 14 74.65 14L76.13 14C76.54 14 76.68 14 76.68 13.80C76.68 13.43 76.13 13.58 76.13 12.59L76.15 5.33C76.16 4.63 76.72 4.77 76.72 4.44C76.72 4.24 76.50 4.20 76.29 4.20L74.73 4.20C74.26 4.20 74.09 4.24 74.09 4.42C74.09 4.77 74.54 4.62 74.54 5.14L74.54 5.42C74.54 5.57 74.51 5.71 74.41 5.84L71.60 9.31C71.48 9.45 71.37 9.48 71.23 9.31L68.29 5.75C68.18 5.57 68.15 5.49 68.15 5.32L68.15 5.18C68.15 4.62 68.70 4.79 68.70 4.44C68.70 4.20 68.40 4.20 68.25 4.20L66.30 4.20C66.18 4.20 65.91 4.20 65.91 4.41C65.91 4.82 66.49 4.52 66.49 5.28L66.49 12.73C66.49 13.62 65.95 13.40 65.95 13.79C65.95 13.97 66.18 14 66.40 14ZM78.75 14L80.30 14C80.75 14 80.98 14 80.98 13.82C80.98 13.44 80.44 13.58 80.44 12.78L80.47 8.55C80.47 8.43 80.54 8.30 80.70 8.47L83.55 11.63C83.68 11.80 83.82 11.83 83.99 11.62L86.63 8.47C86.74 8.34 86.90 8.30 86.90 8.47L86.91 12.70C86.91 13.58 86.39 13.38 86.39 13.76C86.39 13.94 86.52 14 87.00 14L88.48 14C88.89 14 89.03 14 89.03 13.80C89.03 13.43 88.48 13.58 88.48 12.59L88.49 5.33C88.51 4.63 89.07 4.77 89.07 4.44C89.07 4.24 88.84 4.20 88.63 4.20L87.08 4.20C86.60 4.20 86.44 4.24 86.44 4.42C86.44 4.77 86.88 4.62 86.88 5.14L86.88 5.42C86.88 5.57 86.86 5.71 86.76 5.84L83.94 9.31C83.83 9.45 83.72 9.48 83.58 9.31L80.64 5.75C80.53 5.57 80.50 5.49 80.50 5.32L80.50 5.18C80.50 4.62 81.05 4.79 81.05 4.44C81.05 4.20 80.75 4.20 80.60 4.20L78.65 4.20C78.53 4.20 78.26 4.20 78.26 4.41C78.26 4.82 78.83 4.52 78.83 5.28L78.83 12.73C78.83 13.62 78.30 13.40 78.30 13.79C78.30 13.97 78.53 14 78.75 14ZM90.16 14L91.74 14C92.15 14 92.36 13.97 92.36 13.76C92.36 13.29 91.94 13.62 92.15 12.81L92.27 12.32C92.34 12.17 92.51 12.12 92.65 12.12L96.04 12.12C96.22 12.12 96.33 12.15 96.40 12.35L96.66 13.05C96.82 13.52 96.33 13.36 96.33 13.76C96.33 13.97 96.47 14 96.80 14L98.48 14C98.87 14 99.01 13.97 99.01 13.73C99.01 13.41 98.60 13.51 98.39 12.96L95.40 5.22C95.20 4.73 95.66 4.77 95.66 4.47C95.66 4.27 95.54 4.20 95.31 4.20L93.25 4.20C93.04 4.20 92.92 4.27 92.92 4.47C92.92 4.73 93.28 4.72 93.11 5.22L90.45 12.89C90.24 13.51 89.77 13.38 89.77 13.73C89.77 13.96 89.96 14 90.16 14ZM92.99 10.74C92.82 10.74 92.74 10.65 92.79 10.49L94.15 6.55C94.19 6.43 94.32 6.41 94.37 6.57L95.76 10.43C95.82 10.58 95.79 10.74 95.62 10.74ZM100.23 14L101.86 14C102.23 14 102.38 14.03 102.38 13.80C102.38 13.41 101.79 13.68 101.79 12.80L101.79 8.40C101.79 8.08 101.96 8.01 102.21 8.22L107.11 12.38C107.30 12.56 107.41 12.77 107.41 12.92L107.41 13.66C107.41 13.85 107.48 14 107.67 14L108.99 14C109.17 14 109.42 14 109.42 13.76C109.42 13.40 108.98 13.48 108.98 12.94L108.98 5.54C108.98 4.56 109.48 4.82 109.48 4.47C109.48 4.23 109.20 4.20 108.68 4.20L107.73 4.20C107.13 4.20 106.90 4.20 106.90 4.44C106.90 4.80 107.41 4.52 107.41 5.63L107.41 10.15C107.41 10.47 107.24 10.51 107.06 10.35L102.06 6.05C101.88 5.87 101.78 5.80 101.78 5.54L101.78 4.56C101.78 4.31 101.64 4.20 101.37 4.20L100.38 4.20C99.93 4.20 99.75 4.21 99.75 4.41C99.75 4.72 100.23 4.55 100.24 5.40L100.24 12.77C100.27 13.62 99.71 13.43 99.71 13.80C99.71 14 99.95 14 100.23 14Z"></path></g><defs data-v-fde0c5aa=""><!----></defs><g data-v-fde0c5aa="" id="ba552298-efa7-4119-935f-15b34dd650b3" stroke="none" fill="#B4922B" transform="matrix(1.2301431190178123,0,0,1.2301431190178123,40,130.317710095715)"><path d="M29.625 1l-3.099 3.172H4.054v23.657h22.472L29.625 31H1V1h28.625M32 0H0v32h32l-5.054-5.172H5.054V5.172h21.893L32 0z"></path><path d="M21.038 10.962v10.076H10.962V10.962h10.076m1-1H9.962v12.076h12.076V9.962z"></path></g><defs data-v-fde0c5aa=""><!----></defs><g data-v-fde0c5aa="" id="5e0b42c0-0631-4467-ad11-84461f360de9" fill="#1F1E1A" transform="matrix(0.6185580390052919,0,0,0.6185580390052919,92.19138355691113,156.09742756150968)"><path d="M0.28 3.71L0.28 3.71L0.28 3.71Q0.28 3.51 0.66 3.51L0.66 3.51L0.66 3.51Q0.74 3.51 1.20 3.54L1.20 3.54L1.20 3.54Q1.65 3.56 2.20 3.56L2.20 3.56L2.20 3.56Q2.59 3.56 2.98 3.54L2.98 3.54L2.98 3.54Q3.37 3.51 3.40 3.51L3.40 3.51L3.40 3.51Q3.53 3.51 3.56 3.55L3.56 3.55L3.56 3.55Q3.60 3.58 3.60 3.68L3.60 3.68L3.60 3.68Q3.60 3.77 3.30 3.92L3.30 3.92L3.30 3.92Q3.00 4.07 3.00 4.34L3.00 4.34L3.00 4.34Q3.00 4.47 3.05 4.65L3.05 4.65L3.05 4.65Q3.11 4.83 3.28 5.22L3.28 5.22L3.28 5.22Q3.44 5.61 3.63 6.03L3.63 6.03L3.63 6.03Q3.82 6.45 4.21 7.33L4.21 7.33L4.21 7.33Q4.61 8.20 4.98 9.07L4.98 9.07L4.98 9.07Q5.08 9.30 5.27 9.74L5.27 9.74L5.27 9.74Q5.46 10.18 5.58 10.46L5.58 10.46L5.58 10.46Q5.70 10.74 5.84 11.05L5.84 11.05L5.84 11.05Q5.98 11.37 6.07 11.52L6.07 11.52L6.07 11.52Q6.16 11.68 6.20 11.68L6.20 11.68L6.20 11.68Q6.26 11.68 6.65 10.81L6.65 10.81L6.65 10.81Q7.04 9.94 7.35 9.17L7.35 9.17L7.35 9.17Q7.41 9.04 7.48 8.89L7.48 8.89L7.48 8.89Q7.56 8.74 7.59 8.63L7.59 8.63L7.59 8.63Q7.63 8.53 7.63 8.41L7.63 8.41L7.63 8.41Q7.63 8.25 6.79 6.36L6.79 6.36L6.79 6.36Q5.95 4.48 5.71 4.21L5.71 4.21L5.71 4.21Q5.66 4.14 5.60 4.10L5.60 4.10L5.60 4.10Q5.54 4.06 5.50 4.02L5.50 4.02L5.50 4.02Q5.45 3.99 5.41 3.97L5.41 3.97L5.41 3.97Q5.38 3.95 5.32 3.94L5.32 3.94L5.32 3.94Q5.26 3.93 5.24 3.93L5.24 3.93L5.24 3.93Q5.22 3.93 5.16 3.93L5.16 3.93L5.16 3.93Q5.10 3.92 5.08 3.92L5.08 3.92L5.08 3.92Q4.69 3.88 4.61 3.84L4.61 3.84L4.61 3.84Q4.52 3.81 4.52 3.70L4.52 3.70L4.52 3.70Q4.52 3.50 4.93 3.50L4.93 3.50L4.93 3.50Q5.01 3.50 5.47 3.53L5.47 3.53L5.47 3.53Q5.94 3.56 6.47 3.56L6.47 3.56L6.47 3.56Q6.50 3.56 6.85 3.53L6.85 3.53L6.85 3.53Q7.20 3.50 7.39 3.50L7.39 3.50L7.39 3.50Q7.81 3.50 7.81 3.61L7.81 3.61L7.81 3.61Q7.81 3.70 7.66 3.78L7.66 3.78L7.66 3.78Q7.50 3.86 7.36 4.00L7.36 4.00L7.36 4.00Q7.21 4.13 7.21 4.33L7.21 4.33L7.21 4.33Q7.21 4.59 7.64 5.57L7.64 5.57L7.64 5.57Q7.67 5.63 7.83 6.03L7.83 6.03L7.83 6.03Q7.99 6.44 8.12 6.71L8.12 6.71L8.12 6.71Q8.25 6.99 8.30 6.99L8.30 6.99L8.30 6.99Q8.41 6.99 8.86 5.76L8.86 5.76L8.86 5.76Q9.31 4.54 9.31 4.31L9.31 4.31L9.31 4.31Q9.31 4.06 9.10 3.96L9.10 3.96L9.10 3.96Q8.89 3.85 8.68 3.80L8.68 3.80L8.68 3.80Q8.47 3.75 8.47 3.64L8.47 3.64L8.47 3.64Q8.47 3.49 8.78 3.49L8.78 3.49L8.78 3.49Q8.86 3.49 9.20 3.50L9.20 3.50L9.20 3.50Q9.53 3.51 9.67 3.51L9.67 3.51L9.91 3.51L9.91 3.51Q10.11 3.51 10.65 3.47L10.65 3.47L10.78 3.47L10.78 3.47Q10.96 3.47 10.96 3.61L10.96 3.61L10.96 3.61Q10.96 3.75 10.70 3.84L10.70 3.84L10.70 3.84Q10.43 3.92 10.33 4.02L10.33 4.02L10.33 4.02Q10.11 4.24 9.94 4.66L9.94 4.66L9.94 4.66Q9.65 5.38 9.24 6.33L9.24 6.33L9.24 6.33Q8.82 7.31 8.75 7.50L8.75 7.50L8.75 7.50Q8.68 7.70 8.68 7.85L8.68 7.85L8.68 7.85Q8.68 7.97 9.53 9.87L9.53 9.87L9.53 9.87Q10.39 11.77 10.54 11.77L10.54 11.77L10.54 11.77Q10.71 11.77 12.17 8.24L12.17 8.24L12.17 8.24Q13.64 4.70 13.64 4.35L13.64 4.35L13.64 4.35Q13.64 4.13 13.47 4.01L13.47 4.01L13.47 4.01Q13.31 3.89 13.12 3.87L13.12 3.87L13.12 3.87Q12.92 3.85 12.76 3.80L12.76 3.80L12.76 3.80Q12.60 3.75 12.60 3.64L12.60 3.64L12.60 3.64Q12.60 3.54 12.64 3.52L12.64 3.52L12.64 3.52Q12.68 3.50 12.87 3.50L12.87 3.50L12.87 3.50Q12.91 3.50 13.19 3.51L13.19 3.51L13.19 3.51Q13.47 3.51 13.75 3.51L13.75 3.51L13.75 3.51Q14 3.51 14.31 3.50L14.31 3.50L14.31 3.50Q14.63 3.49 14.99 3.49L14.99 3.49L14.99 3.49Q15.27 3.49 15.27 3.68L15.27 3.68L15.27 3.68Q15.27 3.78 15.20 3.84L15.20 3.84L15.20 3.84Q15.12 3.89 14.97 3.98L14.97 3.98L14.97 3.98Q14.81 4.06 14.70 4.17L14.70 4.17L14.70 4.17Q14.63 4.24 14.58 4.31L14.58 4.31L14.58 4.31Q14.53 4.38 14.48 4.49L14.48 4.49L14.48 4.49Q14.42 4.59 14.38 4.66L14.38 4.66L14.38 4.66Q14.35 4.73 14.27 4.91L14.27 4.91L14.27 4.91Q14.20 5.08 14.15 5.18L14.15 5.18L14.15 5.18Q13.08 7.59 11.75 10.58L11.75 10.58L11.75 10.58Q10.68 13.01 10.49 13.41L10.49 13.41L10.49 13.41Q10.29 13.82 10.18 13.82L10.18 13.82L10.18 13.82Q10.11 13.82 10.01 13.64L10.01 13.64L10.01 13.64Q9.91 13.47 9.74 13.05L9.74 13.05L9.74 13.05Q9.56 12.64 9.53 12.57L9.53 12.57L9.53 12.57Q9.39 12.26 9.16 11.72L9.16 11.72L9.16 11.72Q8.93 11.17 8.77 10.79L8.77 10.79L8.77 10.79Q8.61 10.42 8.44 10.02L8.44 10.02L8.44 10.02Q8.27 9.63 8.16 9.43L8.16 9.43L8.16 9.43Q8.05 9.23 8.01 9.23L8.01 9.23L8.01 9.23Q7.87 9.23 7.06 11.16L7.06 11.16L7.06 11.16Q6.26 13.09 6.20 13.31L6.20 13.31L6.20 13.31Q6.19 13.37 6.17 13.43L6.17 13.43L6.17 13.43Q6.15 13.48 6.13 13.52L6.13 13.52L6.13 13.52Q6.12 13.57 6.10 13.61L6.10 13.61L6.10 13.61Q6.09 13.65 6.08 13.68L6.08 13.68L6.08 13.68Q6.06 13.71 6.05 13.73L6.05 13.73L6.05 13.73Q6.05 13.76 6.03 13.78L6.03 13.78L6.03 13.78Q6.02 13.80 6.01 13.82L6.01 13.82L6.01 13.82Q5.99 13.83 5.98 13.84L5.98 13.84L5.98 13.84Q5.96 13.85 5.95 13.85L5.95 13.85L5.95 13.85Q5.94 13.86 5.91 13.86L5.91 13.86L5.91 13.86Q5.78 13.86 5.60 13.46L5.60 13.46L5.60 13.46Q5.42 13.06 4.94 11.89L4.94 11.89L4.94 11.89Q4.47 10.72 3.98 9.65L3.98 9.65L3.98 9.65Q3.16 7.87 2.25 5.63L2.25 5.63L2.25 5.63Q1.99 4.96 1.68 4.57L1.68 4.57L1.68 4.57Q1.37 4.19 1.13 4.09L1.13 4.09L1.13 4.09Q0.90 3.99 0.70 3.98L0.70 3.98L0.70 3.98Q0.50 3.96 0.39 3.92L0.39 3.92L0.39 3.92Q0.28 3.88 0.28 3.71ZM21.73 10.72L21.73 10.72L21.73 10.72Q21.73 9.32 22.52 8.36L22.52 8.36L22.52 8.36Q23.31 7.39 24.57 7.39L24.57 7.39L24.57 7.39Q25.16 7.39 25.64 7.60L25.64 7.60L25.64 7.60Q26.12 7.81 26.39 8.11L26.39 8.11L26.39 8.11Q26.66 8.41 26.84 8.75L26.84 8.75L26.84 8.75Q27.02 9.09 27.08 9.30L27.08 9.30L27.08 9.30Q27.15 9.52 27.15 9.62L27.15 9.62L27.15 9.62Q27.15 9.87 26.57 9.87L26.57 9.87L23.39 9.87L22.97 9.87L22.97 9.87Q22.86 9.87 22.84 9.89L22.84 9.89L22.84 9.89Q22.82 9.91 22.82 10.02L22.82 10.02L22.82 10.02Q22.82 11.34 23.53 12.10L23.53 12.10L23.53 12.10Q24.23 12.85 25.19 12.85L25.19 12.85L25.19 12.85Q25.77 12.85 26.38 12.54L26.38 12.54L26.38 12.54Q26.99 12.22 27.02 12.22L27.02 12.22L27.02 12.22Q27.16 12.22 27.16 12.35L27.16 12.35L27.16 12.35Q27.16 12.40 27.06 12.55L27.06 12.55L27.06 12.55Q26.96 12.70 26.75 12.89L26.75 12.89L26.75 12.89Q26.54 13.09 26.26 13.27L26.26 13.27L26.26 13.27Q25.98 13.45 25.56 13.58L25.56 13.58L25.56 13.58Q25.14 13.71 24.68 13.71L24.68 13.71L24.68 13.71Q23.45 13.71 22.59 12.95L22.59 12.95L22.59 12.95Q21.73 12.19 21.73 10.72ZM22.90 9.34L22.90 9.34L22.90 9.34Q22.90 9.53 23.09 9.53L23.09 9.53L23.09 9.53Q23.46 9.53 24.47 9.49L24.47 9.49L24.47 9.49Q25.48 9.45 25.55 9.45L25.55 9.45L25.55 9.45Q25.75 9.45 25.80 9.41L25.80 9.41L25.80 9.41Q25.84 9.38 25.84 9.28L25.84 9.28L25.84 9.28Q25.84 8.86 25.45 8.30L25.45 8.30L25.45 8.30Q25.06 7.74 24.33 7.74L24.33 7.74L24.33 7.74Q23.66 7.74 23.28 8.29L23.28 8.29L23.28 8.29Q22.90 8.85 22.90 9.34ZM35.38 12.25L35.38 12.25L35.38 12.25Q35.38 11.75 35.59 11.40L35.59 11.40L35.59 11.40Q35.80 11.06 36.23 10.87L36.23 10.87L36.23 10.87Q36.65 10.68 37.11 10.57L37.11 10.57L37.11 10.57Q37.58 10.46 38.23 10.35L38.23 10.35L38.23 10.35Q38.32 10.33 38.36 10.32L38.36 10.32L38.36 10.32Q38.40 10.32 38.47 10.31L38.47 10.31L38.47 10.31Q38.54 10.30 38.60 10.29L38.60 10.29L38.60 10.29Q38.70 10.28 38.73 10.26L38.73 10.26L38.73 10.26Q38.77 10.25 38.80 10.20L38.80 10.20L38.80 10.20Q38.84 10.15 38.84 10.07L38.84 10.07L38.84 10.07Q38.84 9.93 38.85 9.68L38.85 9.68L38.85 9.68Q38.86 9.44 38.86 9.34L38.86 9.34L38.86 9.34Q38.86 8.54 38.40 8.18L38.40 8.18L38.40 8.18Q37.94 7.83 37.51 7.83L37.51 7.83L37.51 7.83Q36.50 7.83 36.50 8.67L36.50 8.67L36.50 8.67Q36.50 8.78 36.53 8.95L36.53 8.95L36.53 8.95Q36.55 9.11 36.55 9.17L36.55 9.17L36.55 9.17Q36.55 9.45 36.30 9.45L36.30 9.45L36.30 9.45Q36.22 9.45 36.09 9.43L36.09 9.43L36.09 9.43Q35.97 9.41 35.80 9.36L35.80 9.36L35.80 9.36Q35.64 9.31 35.54 9.19L35.54 9.19L35.54 9.19Q35.43 9.07 35.43 8.90L35.43 8.90L35.43 8.90Q35.43 8.36 36.17 7.86L36.17 7.86L36.17 7.86Q36.90 7.36 37.79 7.36L37.79 7.36L37.79 7.36Q38.39 7.36 38.81 7.50L38.81 7.50L38.81 7.50Q39.23 7.64 39.43 7.82L39.43 7.82L39.43 7.82Q39.63 7.99 39.75 8.28L39.75 8.28L39.75 8.28Q39.86 8.57 39.87 8.73L39.87 8.73L39.87 8.73Q39.89 8.89 39.89 9.13L39.89 9.13L39.89 9.13Q39.89 10.14 39.85 10.72L39.85 10.72L39.85 10.72Q39.82 11.30 39.82 11.73L39.82 11.73L39.82 11.73Q39.82 12.25 39.93 12.55L39.93 12.55L39.93 12.55Q40.04 12.85 40.19 12.94L40.19 12.94L40.19 12.94Q40.35 13.02 40.50 13.03L40.50 13.03L40.50 13.03Q40.66 13.05 40.77 13.09L40.77 13.09L40.77 13.09Q40.88 13.13 40.88 13.26L40.88 13.26L40.88 13.26Q40.88 13.55 40.00 13.55L40.00 13.55L40.00 13.55Q39.63 13.55 39.38 13.36L39.38 13.36L39.38 13.36Q39.12 13.16 39.00 12.97L39.00 12.97L39.00 12.97Q38.89 12.78 38.88 12.78L38.88 12.78L38.88 12.78Q38.86 12.78 38.77 12.87L38.77 12.87L38.77 12.87Q38.67 12.96 38.49 13.09L38.49 13.09L38.49 13.09Q38.32 13.22 38.10 13.34L38.10 13.34L38.10 13.34Q37.88 13.47 37.60 13.56L37.60 13.56L37.60 13.56Q37.31 13.65 37.03 13.65L37.03 13.65L37.03 13.65Q36.13 13.65 35.73 13.23L35.73 13.23L35.73 13.23Q35.38 12.88 35.38 12.25ZM36.47 12.04L36.47 12.04L36.47 12.04Q36.47 12.52 36.75 12.80L36.75 12.80L36.75 12.80Q37.03 13.09 37.55 13.09L37.55 13.09L37.55 13.09Q37.91 13.09 38.17 12.98L38.17 12.98L38.17 12.98Q38.43 12.87 38.56 12.73L38.56 12.73L38.56 12.73Q38.68 12.59 38.75 12.36L38.75 12.36L38.75 12.36Q38.82 12.12 38.83 12.00L38.83 12.00L38.83 12.00Q38.84 11.87 38.84 11.66L38.84 11.66L38.84 10.65L38.84 10.65Q38.84 10.53 38.74 10.53L38.74 10.53L38.74 10.53Q38.71 10.53 38.67 10.54L38.67 10.54L38.67 10.54Q38.63 10.56 38.60 10.56L38.60 10.56L38.60 10.56Q38.28 10.61 38.19 10.63L38.19 10.63L38.19 10.63Q38.11 10.64 37.80 10.71L37.80 10.71L37.80 10.71Q37.49 10.78 37.37 10.84L37.37 10.84L37.37 10.84Q37.25 10.89 37.04 11.01L37.04 11.01L37.04 11.01Q36.82 11.13 36.73 11.26L36.73 11.26L36.73 11.26Q36.64 11.40 36.55 11.60L36.55 11.60L36.55 11.60Q36.47 11.80 36.47 12.04ZM48.27 8.12L48.27 8.12L48.27 8.12Q48.27 7.97 48.46 7.89L48.46 7.89L48.46 7.89Q48.65 7.81 49.16 7.65L49.16 7.65L49.16 7.65Q49.67 7.49 50.12 7.28L50.12 7.28L50.12 7.28Q50.26 7.22 50.32 7.22L50.32 7.22L50.32 7.22Q50.50 7.22 50.50 7.50L50.50 7.50L50.50 7.50Q50.50 7.56 50.49 7.69L50.49 7.69L50.49 7.69Q50.48 7.81 50.48 7.88L50.48 7.88L50.48 7.88Q50.48 8.18 50.50 8.30L50.50 8.30L50.50 8.30Q50.51 8.43 50.53 8.46L50.53 8.46L50.53 8.46Q50.55 8.48 50.60 8.48L50.60 8.48L50.60 8.48Q50.62 8.48 50.81 8.20L50.81 8.20L50.81 8.20Q50.99 7.92 51.32 7.64L51.32 7.64L51.32 7.64Q51.66 7.35 52.07 7.35L52.07 7.35L52.07 7.35Q52.32 7.35 52.72 7.62L52.72 7.62L52.72 7.62Q53.02 7.81 53.02 8.02L53.02 8.02L53.02 8.02Q53.02 8.27 52.91 8.47L52.91 8.47L52.91 8.47Q52.79 8.67 52.69 8.74L52.69 8.74L52.69 8.74Q52.58 8.81 52.54 8.81L52.54 8.81L52.54 8.81Q52.43 8.81 52.14 8.64L52.14 8.64L52.14 8.64Q51.86 8.47 51.48 8.47L51.48 8.47L51.48 8.47Q51.10 8.47 50.77 8.78L50.77 8.78L50.77 8.78Q50.44 9.09 50.44 9.34L50.44 9.34L50.44 10.79L50.44 10.79Q50.44 11.30 50.45 11.61L50.45 11.61L50.45 11.61Q50.46 11.93 50.46 12.00L50.46 12.00L50.46 12.00Q50.46 12.08 50.46 12.14L50.46 12.14L50.46 12.14Q50.47 12.19 50.47 12.26L50.47 12.26L50.47 12.26Q50.47 12.56 50.67 12.77L50.67 12.77L50.67 12.77Q50.86 12.98 51.13 13.02L51.13 13.02L51.13 13.02Q51.21 13.03 51.34 13.05L51.34 13.05L51.34 13.05Q51.46 13.06 51.53 13.07L51.53 13.07L51.53 13.07Q51.60 13.08 51.69 13.10L51.69 13.10L51.69 13.10Q51.77 13.12 51.81 13.16L51.81 13.16L51.81 13.16Q51.84 13.20 51.84 13.26L51.84 13.26L51.84 13.26Q51.84 13.48 51.67 13.48L51.67 13.48L51.67 13.48Q51.44 13.48 51.03 13.45L51.03 13.45L51.03 13.45Q50.62 13.41 50.48 13.41L50.48 13.41L50.48 13.41Q50.04 13.41 49.56 13.45L49.56 13.45L49.56 13.45Q49.08 13.48 49.03 13.48L49.03 13.48L49.03 13.48Q48.89 13.48 48.82 13.45L48.82 13.45L48.82 13.45Q48.75 13.43 48.73 13.40L48.73 13.40L48.73 13.40Q48.72 13.37 48.72 13.31L48.72 13.31L48.72 13.31Q48.72 13.13 48.90 13.08L48.90 13.08L48.90 13.08Q49.27 12.99 49.34 12.72L49.34 12.72L49.34 12.72Q49.42 12.45 49.42 11.55L49.42 11.55L49.42 11.55Q49.42 10.64 49.41 10.05L49.41 10.05L49.41 10.05Q49.41 9.46 49.41 9.30L49.41 9.30L49.41 9.30Q49.41 9.14 49.40 9.04L49.40 9.04L49.40 9.04Q49.39 8.95 49.39 8.88L49.39 8.88L49.39 8.88Q49.39 8.72 49.35 8.62L49.35 8.62L49.35 8.62Q49.31 8.53 49.15 8.44L49.15 8.44L49.15 8.44Q48.99 8.36 48.69 8.36L48.69 8.36L48.69 8.36Q48.68 8.36 48.62 8.35L48.62 8.35L48.62 8.35Q48.57 8.34 48.54 8.34L48.54 8.34L48.54 8.34Q48.27 8.34 48.27 8.12ZM70.97 12.84L70.97 12.84L70.97 11.62L70.97 11.62Q70.97 11.47 71.03 11.36L71.03 11.36L71.03 11.36Q71.09 11.26 71.18 11.26L71.18 11.26L71.18 11.26Q71.32 11.26 71.36 11.32L71.36 11.32L71.36 11.32Q71.41 11.38 71.46 11.58L71.46 11.58L71.46 11.58Q71.50 11.77 71.54 11.86L71.54 11.86L71.54 11.86Q72.06 13.15 73.00 13.15L73.00 13.15L73.00 13.15Q73.43 13.15 73.82 12.91L73.82 12.91L73.82 12.91Q74.21 12.68 74.21 12.15L74.21 12.15L74.21 12.15Q74.21 11.69 73.89 11.38L73.89 11.38L73.89 11.38Q73.57 11.07 73.11 10.90L73.11 10.90L73.11 10.90Q72.65 10.72 72.18 10.54L72.18 10.54L72.18 10.54Q71.72 10.35 71.40 9.97L71.40 9.97L71.40 9.97Q71.08 9.60 71.08 9.04L71.08 9.04L71.08 9.04Q71.08 8.26 71.71 7.78L71.71 7.78L71.71 7.78Q72.34 7.31 73.19 7.31L73.19 7.31L73.19 7.31Q73.85 7.31 74.24 7.43L74.24 7.43L74.24 7.43Q74.63 7.55 74.71 7.64L74.71 7.64L74.71 7.64Q74.79 7.74 74.79 7.83L74.79 7.83L74.79 7.83Q74.79 7.84 74.82 8.20L74.82 8.20L74.82 8.20Q74.84 8.57 74.84 8.67L74.84 8.67L74.84 8.67Q74.84 8.90 74.79 8.99L74.79 8.99L74.79 8.99Q74.73 9.07 74.59 9.07L74.59 9.07L74.59 9.07Q74.52 9.07 74.40 8.87L74.40 8.87L74.40 8.87Q74.28 8.67 74.14 8.43L74.14 8.43L74.14 8.43Q73.99 8.19 73.66 7.99L73.66 7.99L73.66 7.99Q73.33 7.78 72.90 7.78L72.90 7.78L72.90 7.78Q72.49 7.78 72.23 7.99L72.23 7.99L72.23 7.99Q71.96 8.19 71.96 8.50L71.96 8.50L71.96 8.50Q71.96 8.67 72.00 8.81L72.00 8.81L72.00 8.81Q72.04 8.96 72.15 9.07L72.15 9.07L72.15 9.07Q72.25 9.18 72.33 9.26L72.33 9.26L72.33 9.26Q72.41 9.34 72.59 9.42L72.59 9.42L72.59 9.42Q72.77 9.51 72.86 9.54L72.86 9.54L72.86 9.54Q72.95 9.58 73.17 9.65L73.17 9.65L73.17 9.65Q73.39 9.73 73.46 9.76L73.46 9.76L73.46 9.76Q74.47 10.14 74.82 10.55L74.82 10.55L74.82 10.55Q75.17 10.96 75.17 11.77L75.17 11.77L75.17 11.77Q75.17 12.56 74.42 13.23L74.42 13.23L74.42 13.23Q73.92 13.66 73.04 13.66L73.04 13.66L73.04 13.66Q72.79 13.66 72.51 13.61L72.51 13.61L72.51 13.61Q72.23 13.55 72.06 13.50L72.06 13.50L72.06 13.50Q71.90 13.45 71.69 13.37L71.69 13.37L71.69 13.37Q71.48 13.29 71.47 13.29L71.47 13.29L71.47 13.29Q71.41 13.27 71.34 13.24L71.34 13.24L71.34 13.24Q71.26 13.22 71.22 13.21L71.22 13.21L71.22 13.21Q71.19 13.20 71.13 13.17L71.13 13.17L71.13 13.17Q71.08 13.15 71.06 13.13L71.06 13.13L71.06 13.13Q71.04 13.10 71.01 13.06L71.01 13.06L71.01 13.06Q70.98 13.02 70.97 12.96L70.97 12.96L70.97 12.96Q70.97 12.91 70.97 12.84ZM83.37 12.25L83.37 12.25L83.37 12.25Q83.37 11.75 83.58 11.40L83.58 11.40L83.58 11.40Q83.79 11.06 84.22 10.87L84.22 10.87L84.22 10.87Q84.64 10.68 85.11 10.57L85.11 10.57L85.11 10.57Q85.57 10.46 86.23 10.35L86.23 10.35L86.23 10.35Q86.31 10.33 86.35 10.32L86.35 10.32L86.35 10.32Q86.39 10.32 86.46 10.31L86.46 10.31L86.46 10.31Q86.53 10.30 86.59 10.29L86.59 10.29L86.59 10.29Q86.69 10.28 86.72 10.26L86.72 10.26L86.72 10.26Q86.76 10.25 86.79 10.20L86.79 10.20L86.79 10.20Q86.83 10.15 86.83 10.07L86.83 10.07L86.83 10.07Q86.83 9.93 86.84 9.68L86.84 9.68L86.84 9.68Q86.86 9.44 86.86 9.34L86.86 9.34L86.86 9.34Q86.86 8.54 86.39 8.18L86.39 8.18L86.39 8.18Q85.93 7.83 85.50 7.83L85.50 7.83L85.50 7.83Q84.49 7.83 84.49 8.67L84.49 8.67L84.49 8.67Q84.49 8.78 84.52 8.95L84.52 8.95L84.52 8.95Q84.55 9.11 84.55 9.17L84.55 9.17L84.55 9.17Q84.55 9.45 84.29 9.45L84.29 9.45L84.29 9.45Q84.21 9.45 84.08 9.43L84.08 9.43L84.08 9.43Q83.96 9.41 83.80 9.36L83.80 9.36L83.80 9.36Q83.64 9.31 83.53 9.19L83.53 9.19L83.53 9.19Q83.43 9.07 83.43 8.90L83.43 8.90L83.43 8.90Q83.43 8.36 84.16 7.86L84.16 7.86L84.16 7.86Q84.90 7.36 85.78 7.36L85.78 7.36L85.78 7.36Q86.38 7.36 86.80 7.50L86.80 7.50L86.80 7.50Q87.22 7.64 87.42 7.82L87.42 7.82L87.42 7.82Q87.63 7.99 87.74 8.28L87.74 8.28L87.74 8.28Q87.85 8.57 87.86 8.73L87.86 8.73L87.86 8.73Q87.88 8.89 87.88 9.13L87.88 9.13L87.88 9.13Q87.88 10.14 87.84 10.72L87.84 10.72L87.84 10.72Q87.81 11.30 87.81 11.73L87.81 11.73L87.81 11.73Q87.81 12.25 87.92 12.55L87.92 12.55L87.92 12.55Q88.03 12.85 88.19 12.94L88.19 12.94L88.19 12.94Q88.34 13.02 88.49 13.03L88.49 13.03L88.49 13.03Q88.65 13.05 88.76 13.09L88.76 13.09L88.76 13.09Q88.87 13.13 88.87 13.26L88.87 13.26L88.87 13.26Q88.87 13.55 87.99 13.55L87.99 13.55L87.99 13.55Q87.63 13.55 87.37 13.36L87.37 13.36L87.37 13.36Q87.11 13.16 87.00 12.97L87.00 12.97L87.00 12.97Q86.88 12.78 86.87 12.78L86.87 12.78L86.87 12.78Q86.86 12.78 86.76 12.87L86.76 12.87L86.76 12.87Q86.66 12.96 86.48 13.09L86.48 13.09L86.48 13.09Q86.31 13.22 86.09 13.34L86.09 13.34L86.09 13.34Q85.88 13.47 85.59 13.56L85.59 13.56L85.59 13.56Q85.30 13.65 85.02 13.65L85.02 13.65L85.02 13.65Q84.13 13.65 83.72 13.23L83.72 13.23L83.72 13.23Q83.37 12.88 83.37 12.25ZM84.46 12.04L84.46 12.04L84.46 12.04Q84.46 12.52 84.74 12.80L84.74 12.80L84.74 12.80Q85.02 13.09 85.54 13.09L85.54 13.09L85.54 13.09Q85.90 13.09 86.16 12.98L86.16 12.98L86.16 12.98Q86.42 12.87 86.55 12.73L86.55 12.73L86.55 12.73Q86.67 12.59 86.74 12.36L86.74 12.36L86.74 12.36Q86.81 12.12 86.82 12.00L86.82 12.00L86.82 12.00Q86.83 11.87 86.83 11.66L86.83 11.66L86.83 10.65L86.83 10.65Q86.83 10.53 86.73 10.53L86.73 10.53L86.73 10.53Q86.70 10.53 86.66 10.54L86.66 10.54L86.66 10.54Q86.62 10.56 86.59 10.56L86.59 10.56L86.59 10.56Q86.27 10.61 86.18 10.63L86.18 10.63L86.18 10.63Q86.10 10.64 85.79 10.71L85.79 10.71L85.79 10.71Q85.48 10.78 85.36 10.84L85.36 10.84L85.36 10.84Q85.25 10.89 85.03 11.01L85.03 11.01L85.03 11.01Q84.81 11.13 84.72 11.26L84.72 11.26L84.72 11.26Q84.63 11.40 84.55 11.60L84.55 11.60L84.55 11.60Q84.46 11.80 84.46 12.04ZM96.26 8.12L96.26 8.12L96.26 8.12Q96.26 7.97 96.45 7.89L96.45 7.89L96.45 7.89Q96.64 7.81 97.15 7.65L97.15 7.65L97.15 7.65Q97.66 7.49 98.11 7.28L98.11 7.28L98.11 7.28Q98.25 7.22 98.31 7.22L98.31 7.22L98.31 7.22Q98.49 7.22 98.49 7.50L98.49 7.50L98.49 7.50Q98.49 7.56 98.48 7.69L98.48 7.69L98.48 7.69Q98.48 7.81 98.48 7.88L98.48 7.88L98.48 7.88Q98.48 8.18 98.49 8.30L98.49 8.30L98.49 8.30Q98.50 8.43 98.52 8.46L98.52 8.46L98.52 8.46Q98.55 8.48 98.59 8.48L98.59 8.48L98.59 8.48Q98.62 8.48 98.80 8.20L98.80 8.20L98.80 8.20Q98.98 7.92 99.32 7.64L99.32 7.64L99.32 7.64Q99.65 7.35 100.06 7.35L100.06 7.35L100.06 7.35Q100.31 7.35 100.72 7.62L100.72 7.62L100.72 7.62Q101.01 7.81 101.01 8.02L101.01 8.02L101.01 8.02Q101.01 8.27 100.90 8.47L100.90 8.47L100.90 8.47Q100.79 8.67 100.68 8.74L100.68 8.74L100.68 8.74Q100.58 8.81 100.53 8.81L100.53 8.81L100.53 8.81Q100.42 8.81 100.13 8.64L100.13 8.64L100.13 8.64Q99.85 8.47 99.47 8.47L99.47 8.47L99.47 8.47Q99.09 8.47 98.76 8.78L98.76 8.78L98.76 8.78Q98.43 9.09 98.43 9.34L98.43 9.34L98.43 10.79L98.43 10.79Q98.43 11.30 98.44 11.61L98.44 11.61L98.44 11.61Q98.45 11.93 98.45 12.00L98.45 12.00L98.45 12.00Q98.45 12.08 98.45 12.14L98.45 12.14L98.45 12.14Q98.46 12.19 98.46 12.26L98.46 12.26L98.46 12.26Q98.46 12.56 98.66 12.77L98.66 12.77L98.66 12.77Q98.85 12.98 99.12 13.02L99.12 13.02L99.12 13.02Q99.20 13.03 99.33 13.05L99.33 13.05L99.33 13.05Q99.46 13.06 99.53 13.07L99.53 13.07L99.53 13.07Q99.60 13.08 99.68 13.10L99.68 13.10L99.68 13.10Q99.76 13.12 99.80 13.16L99.80 13.16L99.80 13.16Q99.83 13.20 99.83 13.26L99.83 13.26L99.83 13.26Q99.83 13.48 99.67 13.48L99.67 13.48L99.67 13.48Q99.43 13.48 99.02 13.45L99.02 13.45L99.02 13.45Q98.62 13.41 98.48 13.41L98.48 13.41L98.48 13.41Q98.03 13.41 97.55 13.45L97.55 13.45L97.55 13.45Q97.08 13.48 97.02 13.48L97.02 13.48L97.02 13.48Q96.88 13.48 96.81 13.45L96.81 13.45L96.81 13.45Q96.74 13.43 96.73 13.40L96.73 13.40L96.73 13.40Q96.71 13.37 96.71 13.31L96.71 13.31L96.71 13.31Q96.71 13.13 96.89 13.08L96.89 13.08L96.89 13.08Q97.26 12.99 97.33 12.72L97.33 12.72L97.33 12.72Q97.41 12.45 97.41 11.55L97.41 11.55L97.41 11.55Q97.41 10.64 97.40 10.05L97.40 10.05L97.40 10.05Q97.40 9.46 97.40 9.30L97.40 9.30L97.40 9.30Q97.40 9.14 97.39 9.04L97.39 9.04L97.39 9.04Q97.38 8.95 97.38 8.88L97.38 8.88L97.38 8.88Q97.38 8.72 97.34 8.62L97.34 8.62L97.34 8.62Q97.30 8.53 97.14 8.44L97.14 8.44L97.14 8.44Q96.98 8.36 96.68 8.36L96.68 8.36L96.68 8.36Q96.67 8.36 96.61 8.35L96.61 8.35L96.61 8.35Q96.56 8.34 96.53 8.34L96.53 8.34L96.53 8.34Q96.26 8.34 96.26 8.12ZM108.75 10.72L108.75 10.72L108.75 10.72Q108.75 9.32 109.54 8.36L109.54 8.36L109.54 8.36Q110.33 7.39 111.59 7.39L111.59 7.39L111.59 7.39Q112.18 7.39 112.66 7.60L112.66 7.60L112.66 7.60Q113.15 7.81 113.41 8.11L113.41 8.11L113.41 8.11Q113.68 8.41 113.86 8.75L113.86 8.75L113.86 8.75Q114.04 9.09 114.11 9.30L114.11 9.30L114.11 9.30Q114.17 9.52 114.17 9.62L114.17 9.62L114.17 9.62Q114.17 9.87 113.60 9.87L113.60 9.87L110.42 9.87L110.00 9.87L110.00 9.87Q109.89 9.87 109.86 9.89L109.86 9.89L109.86 9.89Q109.84 9.91 109.84 10.02L109.84 10.02L109.84 10.02Q109.84 11.34 110.55 12.10L110.55 12.10L110.55 12.10Q111.26 12.85 112.21 12.85L112.21 12.85L112.21 12.85Q112.80 12.85 113.41 12.54L113.41 12.54L113.41 12.54Q114.02 12.22 114.04 12.22L114.04 12.22L114.04 12.22Q114.18 12.22 114.18 12.35L114.18 12.35L114.18 12.35Q114.18 12.40 114.09 12.55L114.09 12.55L114.09 12.55Q113.99 12.70 113.78 12.89L113.78 12.89L113.78 12.89Q113.57 13.09 113.29 13.27L113.29 13.27L113.29 13.27Q113.01 13.45 112.59 13.58L112.59 13.58L112.59 13.58Q112.17 13.71 111.71 13.71L111.71 13.71L111.71 13.71Q110.47 13.71 109.61 12.95L109.61 12.95L109.61 12.95Q108.75 12.19 108.75 10.72ZM109.93 9.34L109.93 9.34L109.93 9.34Q109.93 9.53 110.11 9.53L110.11 9.53L110.11 9.53Q110.49 9.53 111.50 9.49L111.50 9.49L111.50 9.49Q112.50 9.45 112.57 9.45L112.57 9.45L112.57 9.45Q112.77 9.45 112.82 9.41L112.82 9.41L112.82 9.41Q112.87 9.38 112.87 9.28L112.87 9.28L112.87 9.28Q112.87 8.86 112.48 8.30L112.48 8.30L112.48 8.30Q112.08 7.74 111.36 7.74L111.36 7.74L111.36 7.74Q110.68 7.74 110.31 8.29L110.31 8.29L110.31 8.29Q109.93 8.85 109.93 9.34ZM122.28 10.72L122.28 10.72L122.28 10.72Q122.28 9.32 123.07 8.36L123.07 8.36L123.07 8.36Q123.86 7.39 125.12 7.39L125.12 7.39L125.12 7.39Q125.71 7.39 126.19 7.60L126.19 7.60L126.19 7.60Q126.67 7.81 126.94 8.11L126.94 8.11L126.94 8.11Q127.20 8.41 127.39 8.75L127.39 8.75L127.39 8.75Q127.57 9.09 127.63 9.30L127.63 9.30L127.63 9.30Q127.69 9.52 127.69 9.62L127.69 9.62L127.69 9.62Q127.69 9.87 127.12 9.87L127.12 9.87L123.94 9.87L123.52 9.87L123.52 9.87Q123.41 9.87 123.39 9.89L123.39 9.89L123.39 9.89Q123.37 9.91 123.37 10.02L123.37 10.02L123.37 10.02Q123.37 11.34 124.07 12.10L124.07 12.10L124.07 12.10Q124.78 12.85 125.73 12.85L125.73 12.85L125.73 12.85Q126.32 12.85 126.93 12.54L126.93 12.54L126.93 12.54Q127.54 12.22 127.57 12.22L127.57 12.22L127.57 12.22Q127.71 12.22 127.71 12.35L127.71 12.35L127.71 12.35Q127.71 12.40 127.61 12.55L127.61 12.55L127.61 12.55Q127.51 12.70 127.30 12.89L127.30 12.89L127.30 12.89Q127.09 13.09 126.81 13.27L126.81 13.27L126.81 13.27Q126.53 13.45 126.11 13.58L126.11 13.58L126.11 13.58Q125.69 13.71 125.23 13.71L125.23 13.71L125.23 13.71Q124.00 13.71 123.14 12.95L123.14 12.95L123.14 12.95Q122.28 12.19 122.28 10.72ZM123.45 9.34L123.45 9.34L123.45 9.34Q123.45 9.53 123.63 9.53L123.63 9.53L123.63 9.53Q124.01 9.53 125.02 9.49L125.02 9.49L125.02 9.49Q126.03 9.45 126.10 9.45L126.10 9.45L126.10 9.45Q126.29 9.45 126.34 9.41L126.34 9.41L126.34 9.41Q126.39 9.38 126.39 9.28L126.39 9.28L126.39 9.28Q126.39 8.86 126.00 8.30L126.00 8.30L126.00 8.30Q125.61 7.74 124.88 7.74L124.88 7.74L124.88 7.74Q124.21 7.74 123.83 8.29L123.83 8.29L123.83 8.29Q123.45 8.85 123.45 9.34ZM145.99 12.68L145.99 12.68L145.99 12.68Q145.99 12.61 146.03 12.54L146.03 12.54L146.03 12.54Q146.08 12.47 146.13 12.42L146.13 12.42L146.13 12.42Q146.17 12.38 146.27 12.29L146.27 12.29L146.27 12.29Q146.37 12.19 146.43 12.14L146.43 12.14L146.43 12.14Q146.47 12.10 146.54 12.00L146.54 12.00L146.54 12.00Q146.61 11.90 146.66 11.84L146.66 11.84L146.66 11.84Q146.72 11.79 146.81 11.74L146.81 11.74L146.81 11.74Q146.90 11.69 147.01 11.69L147.01 11.69L147.01 11.69Q147.08 11.69 147.29 11.86L147.29 11.86L147.29 11.86Q147.50 12.03 147.74 12.46L147.74 12.46L147.74 12.46Q147.98 12.89 147.98 13.44L147.98 13.44L147.98 13.44Q147.98 14.32 147.36 15.04L147.36 15.04L147.36 15.04Q146.73 15.76 146.36 15.76L146.36 15.76L146.36 15.76Q146.15 15.76 146.15 15.58L146.15 15.58L146.15 15.58Q146.15 15.48 146.28 15.36L146.28 15.36L146.28 15.36Q146.41 15.23 146.58 15.10L146.58 15.10L146.58 15.10Q146.75 14.97 146.88 14.71L146.88 14.71L146.88 14.71Q147.01 14.45 147.01 14.11L147.01 14.11L147.01 14.11Q147.01 13.83 146.89 13.62L146.89 13.62L146.89 13.62Q146.76 13.40 146.66 13.31L146.66 13.31L146.66 13.31Q146.55 13.22 146.23 12.98L146.23 12.98L146.23 12.98Q146.05 12.85 146.02 12.82L146.02 12.82L146.02 12.82Q145.99 12.78 145.99 12.68ZM156.02 13.33L156.02 13.33L156.02 13.33Q156.02 13.13 156.23 13.06L156.23 13.06L156.23 13.06Q156.67 12.89 157.01 12.31L157.01 12.31L157.01 12.31Q157.35 11.73 158.68 8.83L158.68 8.83L158.68 8.83Q160.05 5.87 161.10 3.63L161.10 3.63L161.10 3.63Q161.20 3.42 161.27 3.36L161.27 3.36L161.27 3.36Q161.35 3.30 161.52 3.30L161.52 3.30L161.52 3.30Q161.64 3.30 161.69 3.36L161.69 3.36L161.69 3.36Q161.73 3.42 161.87 3.82L161.87 3.82L161.87 3.82Q161.95 4.06 162.01 4.23L162.01 4.23L162.01 4.23Q162.08 4.40 162.22 4.77L162.22 4.77L162.22 4.77Q162.36 5.15 162.53 5.56L162.53 5.56L162.53 5.56Q162.97 6.66 164.07 9.22L164.07 9.22L164.07 9.22Q165.17 11.77 165.27 11.98L165.27 11.98L165.27 11.98Q165.51 12.46 165.80 12.71L165.80 12.71L165.80 12.71Q166.10 12.95 166.31 12.97L166.31 12.97L166.31 12.97Q166.53 12.99 166.68 13.04L166.68 13.04L166.68 13.04Q166.82 13.09 166.82 13.26L166.82 13.26L166.82 13.26Q166.82 13.47 166.45 13.47L166.45 13.47L166.45 13.47Q166.29 13.47 165.84 13.43L165.84 13.43L165.84 13.43Q165.40 13.38 165.19 13.38L165.19 13.38L165.19 13.38Q164.92 13.38 164.50 13.41L164.50 13.41L164.50 13.41Q164.08 13.44 163.88 13.44L163.88 13.44L163.88 13.44Q163.45 13.44 163.33 13.40L163.33 13.40L163.33 13.40Q163.21 13.37 163.21 13.24L163.21 13.24L163.21 13.24Q163.21 13.15 163.32 13.08L163.32 13.08L163.32 13.08Q163.44 13.02 163.56 13.00L163.56 13.00L163.56 13.00Q163.69 12.98 163.80 12.87L163.80 12.87L163.80 12.87Q163.91 12.77 163.91 12.59L163.91 12.59L163.91 12.59Q163.91 12.28 163.56 11.33L163.56 11.33L163.56 11.33Q163.21 10.37 162.97 9.93L162.97 9.93L162.97 9.93Q162.85 9.69 162.40 9.69L162.40 9.69L162.40 9.69Q162.33 9.69 161.78 9.70L161.78 9.70L161.78 9.70Q161.24 9.72 160.71 9.72L160.71 9.72L159.96 9.72L159.96 9.72Q159.33 9.72 159.17 9.79L159.17 9.79L159.17 9.79Q159.01 9.86 158.89 10.12L158.89 10.12L158.89 10.12Q158.80 10.30 158.61 10.70L158.61 10.70L158.61 10.70Q158.41 11.10 158.34 11.26L158.34 11.26L158.34 11.26Q158.27 11.41 158.16 11.65L158.16 11.65L158.16 11.65Q158.06 11.90 158.02 12.05L158.02 12.05L158.02 12.05Q157.99 12.19 157.99 12.31L157.99 12.31L157.99 12.31Q157.99 12.63 158.15 12.80L158.15 12.80L158.15 12.80Q158.31 12.96 158.51 12.98L158.51 12.98L158.51 12.98Q158.70 13.01 158.86 13.06L158.86 13.06L158.86 13.06Q159.03 13.12 159.03 13.26L159.03 13.26L159.03 13.26Q159.03 13.36 158.98 13.40L158.98 13.40L158.98 13.40Q158.94 13.45 158.79 13.45L158.79 13.45L158.79 13.45Q158.70 13.45 158.30 13.45L158.30 13.45L158.30 13.45Q157.91 13.44 157.63 13.44L157.63 13.44L157.63 13.44Q157.32 13.44 156.93 13.47L156.93 13.47L156.93 13.47Q156.55 13.50 156.42 13.50L156.42 13.50L156.42 13.50Q156.02 13.50 156.02 13.33ZM159.53 8.71L159.53 8.71L159.53 8.71Q159.53 8.89 159.66 8.93L159.66 8.93L159.66 8.93Q159.78 8.97 160.24 8.97L160.24 8.97L160.68 8.97L162.01 8.96L162.01 8.96Q162.55 8.96 162.55 8.74L162.55 8.74L162.55 8.74Q162.55 8.55 161.87 7.01L161.87 7.01L161.87 7.01Q161.18 5.46 161 5.46L161 5.46L161 5.46Q160.87 5.46 160.20 7.01L160.20 7.01L160.20 7.01Q159.53 8.55 159.53 8.71ZM173.96 10.71L173.96 10.71L173.96 10.71Q173.96 9.35 174.87 8.33L174.87 8.33L174.87 8.33Q175.77 7.31 177.37 7.31L177.37 7.31L177.37 7.31Q177.73 7.31 178.32 7.51L178.32 7.51L178.32 7.51Q178.92 7.71 178.96 7.71L178.96 7.71L178.96 7.71Q179.03 7.71 179.03 7.21L179.03 7.21L179.03 7.21Q179.03 6.15 179.05 5.82L179.05 5.82L179.05 5.82Q179.06 5.49 179.06 5.40L179.06 5.40L179.06 5.40Q179.06 4.96 179.05 4.75L179.05 4.75L179.05 4.75Q179.03 4.54 178.97 4.28L178.97 4.28L178.97 4.28Q178.91 4.03 178.74 3.93L178.74 3.93L178.74 3.93Q178.58 3.84 178.32 3.84L178.32 3.84L178.16 3.84L178.16 3.84Q177.95 3.84 177.91 3.82L177.91 3.82L177.91 3.82Q177.87 3.81 177.87 3.72L177.87 3.72L177.87 3.71L177.87 3.71Q177.87 3.61 178.01 3.56L178.01 3.56L178.01 3.56Q178.15 3.51 178.58 3.38L178.58 3.38L178.58 3.38Q179.00 3.25 179.45 3.04L179.45 3.04L179.45 3.04Q179.49 3.02 179.62 2.96L179.62 2.96L179.62 2.96Q179.75 2.90 179.84 2.86L179.84 2.86L179.84 2.86Q179.93 2.83 180.00 2.83L180.00 2.83L180.00 2.83Q180.17 2.83 180.17 3.11L180.17 3.11L180.17 3.11Q180.17 3.15 180.07 4.30L180.07 4.30L180.07 4.30Q179.98 5.45 179.98 6.15L179.98 6.15L179.98 6.15Q179.98 7.59 179.97 9.27L179.97 9.27L179.97 9.27Q179.96 10.95 179.96 11.26L179.96 11.26L179.96 11.26Q179.96 12.21 180.05 12.53L180.05 12.53L180.05 12.53Q180.14 12.85 180.45 12.95L180.45 12.95L180.45 12.95Q180.49 12.96 180.68 13.00L180.68 13.00L180.68 13.00Q180.88 13.03 180.96 13.08L180.96 13.08L180.96 13.08Q181.05 13.13 181.05 13.24L181.05 13.24L181.05 13.24Q181.05 13.41 179.97 13.50L179.97 13.50L179.97 13.50Q179.75 13.51 179.45 13.57L179.45 13.57L179.45 13.57Q179.16 13.64 179.09 13.64L179.09 13.64L179.09 13.64Q178.93 13.64 178.93 13.48L178.93 13.48L178.93 13.48Q178.93 13.44 178.91 13.27L178.91 13.27L178.91 13.27Q178.89 13.10 178.89 12.96L178.89 12.96L178.89 12.96Q178.89 12.73 178.77 12.73L178.77 12.73L178.77 12.73Q178.72 12.73 178.56 12.87L178.56 12.87L178.56 12.87Q178.40 13.01 178.19 13.18L178.19 13.18L178.19 13.18Q177.98 13.36 177.58 13.50L177.58 13.50L177.58 13.50Q177.18 13.64 176.72 13.64L176.72 13.64L176.72 13.64Q175.42 13.64 174.69 12.77L174.69 12.77L174.69 12.77Q173.96 11.91 173.96 10.71ZM174.97 10.05L174.97 10.05L174.97 10.05Q174.97 11.12 175.62 12.01L175.62 12.01L175.62 12.01Q176.27 12.91 177.30 12.91L177.30 12.91L177.30 12.91Q177.93 12.91 178.44 12.59L178.44 12.59L178.44 12.59Q178.96 12.26 178.96 11.80L178.96 11.80L178.98 9.41L178.98 9.41Q178.98 8.55 178.58 8.33L178.58 8.33L178.58 8.33Q177.55 7.71 176.92 7.71L176.92 7.71L176.92 7.71Q176.01 7.71 175.49 8.38L175.49 8.38L175.49 8.38Q174.97 9.04 174.97 10.05ZM188.73 10.71L188.73 10.71L188.73 10.71Q188.73 9.35 189.64 8.33L189.64 8.33L189.64 8.33Q190.54 7.31 192.14 7.31L192.14 7.31L192.14 7.31Q192.50 7.31 193.09 7.51L193.09 7.51L193.09 7.51Q193.69 7.71 193.73 7.71L193.73 7.71L193.73 7.71Q193.80 7.71 193.80 7.21L193.80 7.21L193.80 7.21Q193.80 6.15 193.82 5.82L193.82 5.82L193.82 5.82Q193.83 5.49 193.83 5.40L193.83 5.40L193.83 5.40Q193.83 4.96 193.82 4.75L193.82 4.75L193.82 4.75Q193.80 4.54 193.74 4.28L193.74 4.28L193.74 4.28Q193.68 4.03 193.51 3.93L193.51 3.93L193.51 3.93Q193.35 3.84 193.09 3.84L193.09 3.84L192.93 3.84L192.93 3.84Q192.72 3.84 192.68 3.82L192.68 3.82L192.68 3.82Q192.64 3.81 192.64 3.72L192.64 3.72L192.64 3.71L192.64 3.71Q192.64 3.61 192.78 3.56L192.78 3.56L192.78 3.56Q192.92 3.51 193.35 3.38L193.35 3.38L193.35 3.38Q193.77 3.25 194.22 3.04L194.22 3.04L194.22 3.04Q194.26 3.02 194.39 2.96L194.39 2.96L194.39 2.96Q194.52 2.90 194.61 2.86L194.61 2.86L194.61 2.86Q194.70 2.83 194.77 2.83L194.77 2.83L194.77 2.83Q194.94 2.83 194.94 3.11L194.94 3.11L194.94 3.11Q194.94 3.15 194.84 4.30L194.84 4.30L194.84 4.30Q194.75 5.45 194.75 6.15L194.75 6.15L194.75 6.15Q194.75 7.59 194.74 9.27L194.74 9.27L194.74 9.27Q194.73 10.95 194.73 11.26L194.73 11.26L194.73 11.26Q194.73 12.21 194.82 12.53L194.82 12.53L194.82 12.53Q194.91 12.85 195.22 12.95L195.22 12.95L195.22 12.95Q195.26 12.96 195.45 13.00L195.45 13.00L195.45 13.00Q195.65 13.03 195.73 13.08L195.73 13.08L195.73 13.08Q195.82 13.13 195.82 13.24L195.82 13.24L195.82 13.24Q195.82 13.41 194.74 13.50L194.74 13.50L194.74 13.50Q194.52 13.51 194.22 13.57L194.22 13.57L194.22 13.57Q193.93 13.64 193.86 13.64L193.86 13.64L193.86 13.64Q193.70 13.64 193.70 13.48L193.70 13.48L193.70 13.48Q193.70 13.44 193.68 13.27L193.68 13.27L193.68 13.27Q193.66 13.10 193.66 12.96L193.66 12.96L193.66 12.96Q193.66 12.73 193.54 12.73L193.54 12.73L193.54 12.73Q193.49 12.73 193.33 12.87L193.33 12.87L193.33 12.87Q193.17 13.01 192.96 13.18L192.96 13.18L192.96 13.18Q192.75 13.36 192.35 13.50L192.35 13.50L192.35 13.50Q191.95 13.64 191.49 13.64L191.49 13.64L191.49 13.64Q190.19 13.64 189.46 12.77L189.46 12.77L189.46 12.77Q188.73 11.91 188.73 10.71ZM189.74 10.05L189.74 10.05L189.74 10.05Q189.74 11.12 190.39 12.01L190.39 12.01L190.39 12.01Q191.04 12.91 192.07 12.91L192.07 12.91L192.07 12.91Q192.70 12.91 193.21 12.59L193.21 12.59L193.21 12.59Q193.73 12.26 193.73 11.80L193.73 11.80L193.75 9.41L193.75 9.41Q193.75 8.55 193.35 8.33L193.35 8.33L193.35 8.33Q192.32 7.71 191.69 7.71L191.69 7.71L191.69 7.71Q190.78 7.71 190.26 8.38L190.26 8.38L190.26 8.38Q189.74 9.04 189.74 10.05ZM213.63 14.80L213.63 14.80L213.63 14.80Q213.63 14.42 213.88 14.16L213.88 14.16L213.88 14.16Q214.13 13.90 214.38 13.78L214.38 13.78L214.38 13.78Q214.63 13.65 214.63 13.61L214.63 13.61L214.63 13.61Q214.63 13.58 214.56 13.52L214.56 13.52L214.56 13.52Q214.49 13.47 214.40 13.40L214.40 13.40L214.40 13.40Q214.31 13.33 214.24 13.16L214.24 13.16L214.24 13.16Q214.17 12.99 214.17 12.78L214.17 12.78L214.17 12.78Q214.17 12.36 214.35 12.05L214.35 12.05L214.35 12.05Q214.54 11.75 214.72 11.59L214.72 11.59L214.72 11.59Q214.90 11.44 214.90 11.40L214.90 11.40L214.90 11.40Q214.90 11.34 214.75 11.21L214.75 11.21L214.75 11.21Q214.61 11.09 214.42 10.93L214.42 10.93L214.42 10.93Q214.24 10.77 214.09 10.39L214.09 10.39L214.09 10.39Q213.95 10.02 213.95 9.52L213.95 9.52L213.95 9.52Q213.95 9.20 214.05 8.87L214.05 8.87L214.05 8.87Q214.16 8.54 214.40 8.18L214.40 8.18L214.40 8.18Q214.65 7.83 215.16 7.60L215.16 7.60L215.16 7.60Q215.67 7.38 216.37 7.38L216.37 7.38L216.37 7.38Q216.92 7.38 217.31 7.52L217.31 7.52L217.31 7.52Q217.70 7.66 217.89 7.80L217.89 7.80L217.89 7.80Q218.08 7.94 218.13 7.94L218.13 7.94L218.13 7.94Q218.25 7.94 218.85 7.69L218.85 7.69L218.85 7.69Q219.04 7.60 219.14 7.31L219.14 7.31L219.14 7.31Q219.24 7.01 219.35 7.01L219.35 7.01L219.35 7.01Q219.53 7.01 219.53 7.13L219.53 7.13L219.53 7.13Q219.53 7.46 219.44 7.85L219.44 7.85L219.44 7.85Q219.34 8.23 219.23 8.40L219.23 8.40L219.23 8.40Q219.06 8.67 218.65 8.83L218.65 8.83L218.65 8.83Q218.81 9.25 218.81 9.53L218.81 9.53L218.81 9.53Q218.81 10.43 218.13 11.05L218.13 11.05L218.13 11.05Q217.46 11.66 216.50 11.66L216.50 11.66L216.50 11.66Q216.13 11.66 215.80 11.60L215.80 11.60L215.80 11.60Q215.47 11.54 215.42 11.54L215.42 11.54L215.42 11.54Q215.35 11.54 215.24 11.56L215.24 11.56L215.24 11.56Q215.12 11.59 214.96 11.76L214.96 11.76L214.96 11.76Q214.79 11.93 214.79 12.22L214.79 12.22L214.79 12.22Q214.79 12.70 215.22 12.82L215.22 12.82L215.22 12.82Q215.66 12.95 216.66 12.95L216.66 12.95L217.31 12.95L217.31 12.95Q219.34 12.95 219.34 14.18L219.34 14.18L219.34 14.18Q219.34 14.62 219.24 14.84L219.24 14.84L219.24 14.84Q218.97 15.53 218.15 15.93L218.15 15.93L218.15 15.93Q217.32 16.34 216.23 16.34L216.23 16.34L216.23 16.34Q215.60 16.34 215.05 16.22L215.05 16.22L215.05 16.22Q214.51 16.10 214.07 15.74L214.07 15.74L214.07 15.74Q213.63 15.37 213.63 14.80ZM214.44 14.71L214.44 14.71L214.44 14.71Q214.44 15.33 214.96 15.64L214.96 15.64L214.96 15.64Q215.47 15.96 216.23 15.96L216.23 15.96L216.23 15.96Q217.10 15.96 217.79 15.60L217.79 15.60L217.79 15.60Q218.48 15.25 218.48 14.69L218.48 14.69L218.48 14.69Q218.48 14.43 218.37 14.28L218.37 14.28L218.37 14.28Q218.26 14.13 217.99 14.06L217.99 14.06L217.99 14.06Q217.73 14 217.52 13.99L217.52 13.99L217.52 13.99Q217.32 13.97 216.93 13.97L216.93 13.97L216.80 13.97L216.80 13.97Q216.36 13.97 215.71 13.87L215.71 13.87L215.08 13.78L215.08 13.78Q214.94 13.78 214.69 14.06L214.69 14.06L214.69 14.06Q214.44 14.34 214.44 14.71ZM215.01 9.38L215.01 9.38L215.01 9.38Q215.01 10.22 215.41 10.78L215.41 10.78L215.41 10.78Q215.81 11.34 216.41 11.34L216.41 11.34L216.41 11.34Q217.04 11.34 217.38 10.86L217.38 10.86L217.38 10.86Q217.71 10.37 217.71 9.67L217.71 9.67L217.71 9.67Q217.71 8.89 217.32 8.29L217.32 8.29L217.32 8.29Q216.93 7.69 216.26 7.69L216.26 7.69L216.26 7.69Q215.74 7.69 215.38 8.13L215.38 8.13L215.38 8.13Q215.01 8.57 215.01 9.38ZM227.19 3.74L227.19 3.74L227.19 3.74Q227.19 3.65 227.21 3.61L227.21 3.61L227.21 3.61Q227.23 3.57 227.30 3.54L227.30 3.54L227.30 3.54Q227.37 3.50 227.46 3.48L227.46 3.48L227.46 3.48Q227.56 3.46 227.75 3.39L227.75 3.39L227.75 3.39Q227.95 3.33 228.14 3.25L228.14 3.25L228.14 3.25Q228.26 3.21 228.49 3.09L228.49 3.09L228.49 3.09Q228.73 2.98 228.91 2.92L228.91 2.92L228.91 2.92Q229.08 2.86 229.21 2.86L229.21 2.86L229.21 2.86Q229.38 2.86 229.38 3.12L229.38 3.12L229.38 3.12Q229.38 3.18 229.35 3.45L229.35 3.45L229.35 3.45Q229.32 3.72 229.29 4.21L229.29 4.21L229.29 4.21Q229.26 4.69 229.26 5.25L229.26 5.25L229.26 6.03L229.26 6.03Q229.26 6.69 229.25 7.15L229.25 7.15L229.25 7.15Q229.24 7.60 229.24 7.90L229.24 7.90L229.24 12.07L229.24 12.07Q229.24 12.36 229.28 12.55L229.28 12.55L229.28 12.55Q229.33 12.74 229.61 12.91L229.61 12.91L229.61 12.91Q229.88 13.09 230.37 13.09L230.37 13.09L230.37 13.09Q230.44 13.09 230.50 13.16L230.50 13.16L230.50 13.16Q230.55 13.23 230.55 13.30L230.55 13.30L230.55 13.30Q230.55 13.50 230.12 13.50L230.12 13.50L230.12 13.50Q229.99 13.50 229.47 13.45L229.47 13.45L229.47 13.45Q228.94 13.40 228.70 13.40L228.70 13.40L228.70 13.40Q228.34 13.40 228.01 13.45L228.01 13.45L228.01 13.45Q227.68 13.51 227.57 13.51L227.57 13.51L227.57 13.51Q227.47 13.51 227.41 13.46L227.41 13.46L227.41 13.46Q227.35 13.41 227.35 13.37L227.35 13.37L227.35 13.37Q227.35 13.26 227.41 13.21L227.41 13.21L227.41 13.21Q227.47 13.16 227.62 13.13L227.62 13.13L227.62 13.13Q227.77 13.09 227.82 13.06L227.82 13.06L227.82 13.06Q228.06 12.95 228.13 12.75L228.13 12.75L228.13 12.75Q228.20 12.56 228.20 12.15L228.20 12.15L228.20 12.15Q228.20 12.10 228.19 11.98L228.19 11.98L228.19 11.98Q228.19 11.86 228.19 11.79L228.19 11.79L228.19 10.75L228.19 10.75Q228.19 10.23 228.21 8.00L228.21 8.00L228.21 8.00Q228.24 5.77 228.24 4.80L228.24 4.80L228.24 4.80Q228.24 4.48 228.14 4.22L228.14 4.22L228.14 4.22Q228.03 3.96 227.91 3.91L227.91 3.91L227.91 3.91Q227.78 3.85 227.35 3.85L227.35 3.85L227.35 3.85Q227.19 3.85 227.19 3.74ZM238.22 10.60L238.22 10.60L238.22 10.60Q238.22 9.31 239.10 8.36L239.10 8.36L239.10 8.36Q239.97 7.41 241.53 7.41L241.53 7.41L241.53 7.41Q242.84 7.41 243.82 8.23L243.82 8.23L243.82 8.23Q244.79 9.06 244.79 10.51L244.79 10.51L244.79 10.51Q244.79 12.00 243.79 12.84L243.79 12.84L243.79 12.84Q242.79 13.69 241.43 13.69L241.43 13.69L241.43 13.69Q239.92 13.69 239.07 12.77L239.07 12.77L239.07 12.77Q238.22 11.86 238.22 10.60ZM239.33 10.12L239.33 10.12L239.33 10.12Q239.33 11.56 240.10 12.42L240.10 12.42L240.10 12.42Q240.87 13.27 241.85 13.27L241.85 13.27L241.85 13.27Q242.65 13.27 243.19 12.66L243.19 12.66L243.19 12.66Q243.74 12.05 243.74 10.93L243.74 10.93L243.74 10.93Q243.74 9.70 243.07 8.74L243.07 8.74L243.07 8.74Q242.40 7.78 241.19 7.78L241.19 7.78L241.19 7.78Q240.46 7.78 239.90 8.36L239.90 8.36L239.90 8.36Q239.33 8.93 239.33 10.12ZM252.64 8.12L252.64 8.12L252.64 8.12Q252.64 7.97 252.83 7.89L252.83 7.89L252.83 7.89Q253.02 7.81 253.53 7.65L253.53 7.65L253.53 7.65Q254.04 7.49 254.49 7.28L254.49 7.28L254.49 7.28Q254.63 7.22 254.69 7.22L254.69 7.22L254.69 7.22Q254.87 7.22 254.87 7.50L254.87 7.50L254.87 7.50Q254.87 7.56 254.86 7.69L254.86 7.69L254.86 7.69Q254.86 7.81 254.86 7.88L254.86 7.88L254.86 7.88Q254.86 8.18 254.87 8.30L254.87 8.30L254.87 8.30Q254.88 8.43 254.90 8.46L254.90 8.46L254.90 8.46Q254.93 8.48 254.97 8.48L254.97 8.48L254.97 8.48Q255.00 8.48 255.18 8.20L255.18 8.20L255.18 8.20Q255.36 7.92 255.70 7.64L255.70 7.64L255.70 7.64Q256.03 7.35 256.44 7.35L256.44 7.35L256.44 7.35Q256.69 7.35 257.10 7.62L257.10 7.62L257.10 7.62Q257.39 7.81 257.39 8.02L257.39 8.02L257.39 8.02Q257.39 8.27 257.28 8.47L257.28 8.47L257.28 8.47Q257.17 8.67 257.06 8.74L257.06 8.74L257.06 8.74Q256.96 8.81 256.91 8.81L256.91 8.81L256.91 8.81Q256.80 8.81 256.51 8.64L256.51 8.64L256.51 8.64Q256.23 8.47 255.85 8.47L255.85 8.47L255.85 8.47Q255.47 8.47 255.14 8.78L255.14 8.78L255.14 8.78Q254.81 9.09 254.81 9.34L254.81 9.34L254.81 10.79L254.81 10.79Q254.81 11.30 254.82 11.61L254.82 11.61L254.82 11.61Q254.83 11.93 254.83 12.00L254.83 12.00L254.83 12.00Q254.83 12.08 254.83 12.14L254.83 12.14L254.83 12.14Q254.84 12.19 254.84 12.26L254.84 12.26L254.84 12.26Q254.84 12.56 255.04 12.77L255.04 12.77L255.04 12.77Q255.23 12.98 255.50 13.02L255.50 13.02L255.50 13.02Q255.58 13.03 255.71 13.05L255.71 13.05L255.71 13.05Q255.84 13.06 255.91 13.07L255.91 13.07L255.91 13.07Q255.98 13.08 256.06 13.10L256.06 13.10L256.06 13.10Q256.14 13.12 256.18 13.16L256.18 13.16L256.18 13.16Q256.21 13.20 256.21 13.26L256.21 13.26L256.21 13.26Q256.21 13.48 256.05 13.48L256.05 13.48L256.05 13.48Q255.81 13.48 255.40 13.45L255.40 13.45L255.40 13.45Q255.00 13.41 254.86 13.41L254.86 13.41L254.86 13.41Q254.41 13.41 253.93 13.45L253.93 13.45L253.93 13.45Q253.46 13.48 253.40 13.48L253.40 13.48L253.40 13.48Q253.26 13.48 253.19 13.45L253.19 13.45L253.19 13.45Q253.12 13.43 253.11 13.40L253.11 13.40L253.11 13.40Q253.09 13.37 253.09 13.31L253.09 13.31L253.09 13.31Q253.09 13.13 253.27 13.08L253.27 13.08L253.27 13.08Q253.64 12.99 253.71 12.72L253.71 12.72L253.71 12.72Q253.79 12.45 253.79 11.55L253.79 11.55L253.79 11.55Q253.79 10.64 253.78 10.05L253.78 10.05L253.78 10.05Q253.78 9.46 253.78 9.30L253.78 9.30L253.78 9.30Q253.78 9.14 253.77 9.04L253.77 9.04L253.77 9.04Q253.76 8.95 253.76 8.88L253.76 8.88L253.76 8.88Q253.76 8.72 253.72 8.62L253.72 8.62L253.72 8.62Q253.68 8.53 253.52 8.44L253.52 8.44L253.52 8.44Q253.36 8.36 253.06 8.36L253.06 8.36L253.06 8.36Q253.05 8.36 252.99 8.35L252.99 8.35L252.99 8.35Q252.94 8.34 252.91 8.34L252.91 8.34L252.91 8.34Q252.64 8.34 252.64 8.12ZM264.87 7.67L264.87 7.67L264.87 7.67Q264.87 7.50 265.15 7.50L265.15 7.50L265.15 7.50Q265.54 7.50 265.95 7.52L265.95 7.52L265.95 7.52Q266.36 7.53 266.64 7.53L266.64 7.53L266.64 7.53Q266.88 7.53 267.07 7.52L267.07 7.52L267.07 7.52Q267.26 7.50 267.44 7.50L267.44 7.50L267.44 7.50Q267.54 7.50 267.62 7.55L267.62 7.55L267.62 7.55Q267.69 7.60 267.69 7.66L267.69 7.66L267.69 7.66Q267.69 7.91 267.36 7.91L267.36 7.91L267.15 7.91L267.15 7.91Q266.92 7.91 266.92 8.30L266.92 8.30L266.92 8.30Q266.92 8.61 267.53 9.94L267.53 9.94L267.53 9.94Q267.57 10.05 267.60 10.11L267.60 10.11L267.60 10.11Q267.62 10.18 267.67 10.28L267.67 10.28L267.67 10.28Q267.72 10.39 267.76 10.49L267.76 10.49L267.76 10.49Q267.85 10.67 268.04 11.12L268.04 11.12L268.04 11.12Q268.24 11.56 268.35 11.77L268.35 11.77L268.35 11.77Q268.45 11.98 268.51 11.98L268.51 11.98L268.51 11.98Q268.59 11.98 269.16 10.37L269.16 10.37L269.16 10.37Q269.72 8.76 269.72 8.43L269.72 8.43L269.72 8.43Q269.72 8.15 269.59 8.02L269.59 8.02L269.59 8.02Q269.46 7.90 269.29 7.90L269.29 7.90L269.29 7.90Q269.12 7.91 268.99 7.86L268.99 7.86L268.99 7.86Q268.86 7.81 268.86 7.66L268.86 7.66L268.86 7.66Q268.86 7.49 269.12 7.49L269.12 7.49L269.12 7.49Q269.33 7.49 269.68 7.50L269.68 7.50L269.68 7.50Q270.02 7.50 270.13 7.50L270.13 7.50L270.13 7.50Q270.27 7.50 270.61 7.50L270.61 7.50L270.61 7.50Q270.96 7.49 271.00 7.49L271.00 7.49L271.00 7.49Q271.29 7.49 271.29 7.67L271.29 7.67L271.29 7.67Q271.29 7.81 271.05 7.87L271.05 7.87L271.05 7.87Q270.80 7.94 270.72 8.05L270.72 8.05L270.72 8.05Q270.49 8.37 269.96 9.81L269.96 9.81L268.72 13.13L268.72 13.13Q268.56 13.54 268.41 13.96L268.41 13.96L268.41 13.96Q268.25 14.39 268.16 14.66L268.16 14.66L268.16 14.66Q268.06 14.92 267.96 15.19L267.96 15.19L267.96 15.19Q267.86 15.46 267.81 15.60L267.81 15.60L267.81 15.60Q267.75 15.75 267.69 15.88L267.69 15.88L267.69 15.88Q267.62 16.00 267.57 16.05L267.57 16.05L267.57 16.05Q267.53 16.10 267.48 16.10L267.48 16.10L267.48 16.10Q267.47 16.10 267.44 16.10L267.44 16.10L267.44 16.10Q267.40 16.10 267.26 16.11L267.26 16.11L267.26 16.11Q267.12 16.11 266.84 16.11L266.84 16.11L266.84 16.11Q266.57 16.11 266.57 15.93L266.57 15.93L266.57 15.93Q266.57 15.89 266.89 15.50L266.89 15.50L266.89 15.50Q267.20 15.11 267.53 14.53L267.53 14.53L267.53 14.53Q267.85 13.96 267.85 13.48L267.85 13.48L267.85 13.48Q267.85 13.08 267.05 11.34L267.05 11.34L267.05 11.34Q266.25 9.60 265.66 8.50L265.66 8.50L265.66 8.50Q265.51 8.22 265.35 8.06L265.35 8.06L265.35 8.06Q265.19 7.91 265.09 7.90L265.09 7.90L265.09 7.90Q264.99 7.88 264.93 7.84L264.93 7.84L264.93 7.84Q264.87 7.80 264.87 7.67Z"></path></g></svg>